<svg width="24" height="24" viewBox="0 0 24 24" fill="none" xmlns="http://www.w3.org/2000/svg">
<g clip-path="url(#clip0_101_27)">
<path d="M22.8 13.2H1.2C0.881741 13.2 0.576516 13.0735 0.351472 12.8485C0.126428 12.6235 0 12.3183 0 12C0 11.6818 0.126428 11.3765 0.351472 11.1515C0.576516 10.9265 0.881741 10.8 1.2 10.8H22.8C23.1182 10.8 23.4235 10.9265 23.6485 11.1515C23.8735 11.3765 24 11.6818 24 12C24 12.3183 23.8735 12.6235 23.6485 12.8485C23.4235 13.0735 23.1182 13.2 22.8 13.2ZM22.8 4.80002H1.2C0.881741 4.80002 0.576516 4.67359 0.351472 4.44856C0.126428 4.22351 0 3.91829 0 3.60002C0 3.28176 0.126428 2.97654 0.351472 2.75149C0.576516 2.52646 0.881741 2.40002 1.2 2.40002H22.8C23.1182 2.40002 23.4235 2.52646 23.6485 2.75149C23.8735 2.97654 24 3.28176 24 3.60002C24 3.91829 23.8735 4.22351 23.6485 4.44856C23.4235 4.67359 23.1182 4.80002 22.8 4.80002ZM22.8 21.6H1.2C0.881741 21.6 0.576516 21.4735 0.351472 21.2485C0.126428 21.0235 0 20.7183 0 20.4C0 20.0818 0.126428 19.7765 0.351472 19.5515C0.576516 19.3265 0.881741 19.2 1.2 19.2H22.8C23.1182 19.2 23.4235 19.3265 23.6485 19.5515C23.8735 19.7765 24 20.0818 24 20.4C24 20.7183 23.8735 21.0235 23.6485 21.2485C23.4235 21.4735 23.1182 21.6 22.8 21.6Z" fill="#000000"/>
</g>
<defs>
<clipPath id="clip0_101_27">
<rect width="24" height="24" fill="white"/>
</clipPath>
</defs>
</svg>
