<svg width="43" height="32" viewBox="0 0 43 32" fill="none" xmlns="http://www.w3.org/2000/svg">
<path d="M42.2555 6.79053L42.2586 6.79002C41.7781 6.13272 41.3084 5.72175 40.3707 5.50845L5.17463 0.031152C4.50722 -0.0741665 3.83939 0.0897444 3.29435 0.489725C2.75024 0.888785 2.3934 1.47558 2.28941 2.14272L1.70036 5.92779C0.712164 6.27212 0 7.21079 0 8.31484V29.4705C0 30.8653 1.13473 32 2.52948 32H40.2418C41.6363 32 42.7713 30.8653 42.7713 29.4705V8.31484C42.7713 7.74212 42.5776 7.21502 42.2555 6.79053ZM3.65253 2.35492C3.6999 2.05129 3.86247 1.78385 4.11018 1.60242C4.35719 1.42076 4.65834 1.34708 4.96215 1.39427L33.1776 5.7854H3.11862L3.65253 2.35492ZM41.3915 29.4705C41.3915 30.1045 40.8759 30.6203 40.2418 30.6203H2.52948C1.89555 30.6203 1.37972 30.1045 1.37972 29.4705V8.31484C1.37972 7.68091 1.89555 7.16508 2.52948 7.16508H40.2418C40.8759 7.16508 41.3915 7.68091 41.3915 8.31484V29.4705ZM38.4021 12.224C37.2609 12.224 36.3326 11.2957 36.3326 10.1545C36.3326 9.77339 36.0236 9.46461 35.6427 9.46461H7.12854C6.74746 9.46461 6.43868 9.77339 6.43868 10.1545C6.43868 11.2957 5.51032 12.224 4.36911 12.224C3.98803 12.224 3.67925 12.5328 3.67925 12.9139V24.8715C3.67925 25.2525 3.98803 25.5613 4.36911 25.5613C5.51032 25.5613 6.43868 26.4897 6.43868 27.6309C6.43868 28.012 6.74746 28.3208 7.12854 28.3208H35.6427C36.0236 28.3208 36.3326 28.012 36.3326 27.6309C36.3326 26.4897 37.2609 25.5613 38.4021 25.5613C38.783 25.5613 39.092 25.2525 39.092 24.8715V12.9139C39.092 12.5328 38.783 12.224 38.4021 12.224ZM37.7123 24.251C36.3626 24.5259 35.2973 25.5916 35.022 26.941H7.749C7.47412 25.5916 6.40838 24.5258 5.05897 24.251V13.5344C6.40838 13.2595 7.47416 12.1937 7.749 10.8443H35.022C35.2973 12.1937 36.3626 13.2595 37.7123 13.5344V24.251ZM9.88798 16.3632C8.49322 16.3632 7.35849 17.4979 7.35849 18.8927C7.35849 20.2874 8.49322 21.4222 9.88798 21.4222C11.2827 21.4222 12.4175 20.2874 12.4175 18.8927C12.4175 17.4979 11.2827 16.3632 9.88798 16.3632ZM9.88798 20.0424C9.25404 20.0424 8.73821 19.5266 8.73821 18.8927C8.73821 18.2587 9.25404 17.7429 9.88798 17.7429C10.5219 17.7429 11.0377 18.2587 11.0377 18.8927C11.0377 19.5266 10.5219 20.0424 9.88798 20.0424ZM32.8833 16.3632C31.4887 16.3632 30.3538 17.4979 30.3538 18.8927C30.3538 20.2874 31.4887 21.4222 32.8833 21.4222C34.2778 21.4222 35.4128 20.2874 35.4128 18.8927C35.4128 17.4979 34.2778 16.3632 32.8833 16.3632ZM32.8833 20.0424C32.2491 20.0424 31.7335 19.5266 31.7335 18.8927C31.7335 18.2587 32.2491 17.7429 32.8833 17.7429C33.5174 17.7429 34.033 18.2587 34.033 18.8927C34.033 19.5266 33.5174 20.0424 32.8833 20.0424ZM21.3856 11.7641C17.4549 11.7641 14.2571 14.9619 14.2571 18.8927C14.2571 22.8234 17.4549 26.0212 21.3856 26.0212C25.3164 26.0212 28.5142 22.8234 28.5142 18.8927C28.5142 14.9619 25.3164 11.7641 21.3856 11.7641ZM21.3856 24.6415C18.2157 24.6415 15.6368 22.0626 15.6368 18.8927C15.6368 15.7227 18.2157 13.1439 21.3856 13.1439C24.5556 13.1439 27.1344 15.7227 27.1344 18.8927C27.1344 22.0626 24.5556 24.6415 21.3856 24.6415ZM20.4609 17.2824V17.5478C20.4609 17.7874 20.6232 17.9951 20.8557 18.0533L22.2502 18.402C23.0982 18.6137 23.6901 19.3721 23.6901 20.2459V20.5113C23.6901 21.4615 22.9872 22.2439 22.0755 22.3833V22.9332C22.0755 23.3143 21.7667 23.6231 21.3857 23.6231C21.0046 23.6231 20.6958 23.3143 20.6958 22.9332V22.3833C19.784 22.244 19.0812 21.4615 19.0812 20.5113C19.0812 20.1302 19.39 19.8215 19.7711 19.8215C20.1522 19.8215 20.4609 20.1302 20.4609 20.5113C20.4609 20.7988 20.6947 21.0325 20.9821 21.0325H21.7892C22.0767 21.0325 22.3104 20.7988 22.3104 20.5113V20.2459C22.3104 20.0063 22.1481 19.7986 21.9157 19.7404L20.5211 19.3917C19.6734 19.1799 19.0812 18.4215 19.0812 17.5478V17.2824C19.0812 16.3323 19.784 15.55 20.6958 15.4106V14.9206C20.6958 14.5395 21.0046 14.2307 21.3857 14.2307C21.7667 14.2307 22.0755 14.5395 22.0755 14.9206V15.4106C22.9872 15.55 23.6901 16.3324 23.6901 17.2824C23.6901 17.6634 23.3811 17.9722 23.0003 17.9722C22.6194 17.9722 22.3104 17.6634 22.3104 17.2824C22.3104 16.9952 22.0766 16.7614 21.7892 16.7614H20.9821C20.6947 16.7614 20.4609 16.9952 20.4609 17.2824Z" fill="#3B3E41"/>
</svg>
