<svg width="51" height="32" viewBox="0 0 51 32" fill="none" xmlns="http://www.w3.org/2000/svg">
<path d="M2.23383 12.7448C2.39522 12.774 2.5589 12.7887 2.72292 12.7887C2.7812 12.7887 2.83949 12.7794 2.89777 12.7752V31.1553C2.89777 31.3793 2.98677 31.5942 3.14518 31.7526C3.3036 31.911 3.51845 32 3.74249 32H46.4241C46.6481 32 46.863 31.911 47.0214 31.7526C47.1798 31.5942 47.2688 31.3793 47.2688 31.1553V11.3375H49.8376C50.006 11.3382 50.1709 11.2885 50.3108 11.1947C50.4508 11.101 50.5596 10.9676 50.6232 10.8115C50.6868 10.6555 50.7022 10.4841 50.6676 10.3192C50.633 10.1543 50.5498 10.0036 50.4289 9.88629L43.6019 3.27136C43.4435 3.11777 43.2312 3.03227 43.0106 3.03315H18.5461L14.8665 0.482116C14.4109 0.168132 13.8706 0 13.3173 0C12.764 0 12.2237 0.168132 11.7681 0.482116L1.16865 7.83787C0.72702 8.14419 0.386148 8.5746 0.189139 9.07466C-0.00786975 9.57472 -0.0521669 10.122 0.0618495 10.6472C0.175866 11.1724 0.443075 11.6521 0.829685 12.0254C1.2163 12.3988 1.70494 12.6491 2.23383 12.7448ZM4.5872 12.08L13.3198 6.02174L22.0465 12.0766V30.3106H17.2131V25.6723C17.2131 24.6388 16.8026 23.6477 16.0718 22.9169C15.341 22.1861 14.3499 21.7756 13.3164 21.7756C12.283 21.7756 11.2919 22.1861 10.5611 22.9169C9.83033 23.6477 9.41979 24.6388 9.41979 25.6723V30.3106H4.5872V12.08ZM45.5794 26.8954H23.736V25.1283H45.5794V26.8954ZM11.1092 30.308V25.6723C11.1092 25.0869 11.3418 24.5255 11.7557 24.1115C12.1696 23.6976 12.7311 23.465 13.3164 23.465C13.9018 23.465 14.4633 23.6976 14.8772 24.1115C15.2911 24.5255 15.5237 25.0869 15.5237 25.6723V30.3106L11.1092 30.308ZM23.736 30.308V28.5848H45.5794V30.308H23.736ZM45.5794 23.4363H23.736V12.7735C23.7968 12.7777 23.8576 12.7879 23.9201 12.7879C24.3592 12.7878 24.7918 12.6815 25.1809 12.4779C25.57 12.2743 25.904 11.9795 26.1544 11.6188C26.2121 11.5282 26.2646 11.4342 26.3115 11.3375H45.5794V23.4363ZM42.6693 4.72257L47.752 9.64808H26.6004C26.6004 9.62781 26.6004 9.60754 26.5953 9.58642C26.533 9.23494 26.4015 8.89935 26.2083 8.59917C26.0151 8.29899 25.7642 8.0402 25.4702 7.83787L20.9814 4.72257H42.6693ZM2.13077 9.22573L12.7336 1.86913C12.906 1.75061 13.1102 1.68717 13.3194 1.68717C13.5286 1.68717 13.7328 1.75061 13.9052 1.86913L24.508 9.22488C24.7317 9.38046 24.8845 9.61839 24.933 9.88649C24.9814 10.1546 24.9216 10.431 24.7665 10.655C24.6067 10.8749 24.368 11.0246 24.1005 11.0728C23.8329 11.121 23.557 11.0639 23.3305 10.9135L13.8013 4.29937C13.6599 4.20127 13.4919 4.14871 13.3198 4.14871C13.1477 4.14871 12.9797 4.20127 12.8383 4.29937L3.30324 10.9152C3.13615 11.031 2.93845 11.0947 2.73515 11.0982C2.53185 11.1017 2.33207 11.0449 2.16109 10.9348C1.99011 10.8248 1.8556 10.6665 1.77457 10.48C1.69355 10.2935 1.66964 10.0872 1.70589 9.88714C1.7291 9.75415 1.77864 9.62714 1.8516 9.51357C1.92456 9.39999 2.01948 9.30213 2.13077 9.22573Z" fill="#3B3E41"/>
<path d="M25.6943 13.9502V20.8244C25.6943 21.0485 25.7833 21.2633 25.9417 21.4217C26.1002 21.5802 26.315 21.6692 26.539 21.6692H31.9756C32.1996 21.6692 32.4145 21.5802 32.5729 21.4217C32.7313 21.2633 32.8203 21.0485 32.8203 20.8244V13.9502C32.8203 13.7261 32.7313 13.5113 32.5729 13.3529C32.4145 13.1945 32.1996 13.1055 31.9756 13.1055H26.539C26.315 13.1055 26.1002 13.1945 25.9417 13.3529C25.7833 13.5113 25.6943 13.7261 25.6943 13.9502ZM27.3838 14.7949H31.1309V19.9797H27.3838V14.7949Z" fill="#3B3E41"/>
<path d="M37.4951 21.6692H42.9317C43.1557 21.6692 43.3706 21.5802 43.529 21.4217C43.6874 21.2633 43.7764 21.0485 43.7764 20.8244V13.9502C43.7764 13.7261 43.6874 13.5113 43.529 13.3529C43.3706 13.1945 43.1557 13.1055 42.9317 13.1055H37.4951C37.2711 13.1055 37.0562 13.1945 36.8978 13.3529C36.7394 13.5113 36.6504 13.7261 36.6504 13.9502V20.8244C36.6504 21.0485 36.7394 21.2633 36.8978 21.4217C37.0562 21.5802 37.2711 21.6692 37.4951 21.6692ZM38.3398 14.7949H42.087V19.9797H38.3398V14.7949Z" fill="#3B3E41"/>
<path d="M9.74413 19.5977H16.8946C17.1186 19.5977 17.3335 19.5087 17.4919 19.3503C17.6503 19.1918 17.7393 18.977 17.7393 18.753V11.9463C17.7393 11.7222 17.6503 11.5074 17.4919 11.349C17.3335 11.1906 17.1186 11.1016 16.8946 11.1016H9.74413C9.52009 11.1016 9.30524 11.1906 9.14682 11.349C8.98841 11.5074 8.89941 11.7222 8.89941 11.9463V18.7538C8.89964 18.9777 8.98873 19.1923 9.14712 19.3506C9.30551 19.5088 9.52024 19.5977 9.74413 19.5977ZM10.5888 12.7901H16.0499V17.9082H10.5888V12.7901Z" fill="#3B3E41"/>
</svg>
