<svg width="15" height="15" viewBox="0 0 15 15" fill="none" xmlns="http://www.w3.org/2000/svg">
<g clip-path="url(#clip0_8_546)">
<path d="M14.8281 7.08524C14.828 7.08507 14.8278 7.08486 14.8276 7.08469L11.766 4.03781C11.5366 3.80956 11.1656 3.81041 10.9373 4.0398C10.709 4.26917 10.7099 4.64015 10.9393 4.86844L12.9949 6.91406H0.585938C0.262324 6.91406 0 7.17638 0 7.5C0 7.82361 0.262324 8.08594 0.585938 8.08594H12.9948L10.9393 10.1316C10.7099 10.3598 10.7091 10.7308 10.9373 10.9602C11.1657 11.1896 11.5367 11.1904 11.766 10.9622L14.8276 7.91531C14.8278 7.91513 14.828 7.91493 14.8282 7.91475C15.0577 7.68571 15.0569 7.31352 14.8281 7.08524Z" fill="#495057"/>
</g>
<defs>
<clipPath id="clip0_8_546">
<rect width="15" height="15" fill="white"/>
</clipPath>
</defs>
</svg>
