<svg width="20" height="20" viewBox="0 0 20 20" fill="none" xmlns="http://www.w3.org/2000/svg">
<path fill-rule="evenodd" clip-rule="evenodd" d="M10.0003 1.04297C5.05278 1.04297 1.04199 5.05375 1.04199 10.0013C1.04199 14.9489 5.05278 18.9596 10.0003 18.9596C14.9479 18.9596 18.9587 14.9489 18.9587 10.0013C18.9587 5.05375 14.9479 1.04297 10.0003 1.04297ZM9.99324 5.20964C8.49666 5.20964 7.28197 6.42136 7.28197 7.91797C7.28197 9.41455 8.49666 10.6263 9.99324 10.6263C11.4898 10.6263 12.7046 9.41455 12.7046 7.91797C12.7046 6.42136 11.4898 5.20964 9.99324 5.20964ZM10.0003 11.8763C8.21213 11.8763 6.58761 12.5776 5.4008 13.7171C5.27805 13.835 5.20866 13.9978 5.20866 14.168C5.20866 14.3381 5.27805 14.501 5.4008 14.6188C6.58761 15.7583 8.21213 16.4596 10.0003 16.4596C11.7885 16.4596 13.4131 15.7583 14.5998 14.6188C14.7226 14.501 14.792 14.3381 14.792 14.168C14.792 13.9978 14.7226 13.835 14.5998 13.7171C13.4131 12.5776 11.7885 11.8763 10.0003 11.8763Z" fill="#6D7080"/>
</svg>
