<svg width="32" height="32" viewBox="0 0 32 32" fill="none" xmlns="http://www.w3.org/2000/svg">
<g clip-path="url(#clip0_8_412)">
<path d="M11.8155 15.954C11.6905 15.954 11.5655 15.909 11.4705 15.814L7.27049 11.614C5.28049 12.094 3.18049 11.509 1.72049 10.059C0.180487 8.51404 -0.384513 6.25903 0.250487 4.18403C0.300487 4.01903 0.430487 3.89903 0.595487 3.85403C0.760487 3.81403 0.935487 3.85903 1.05549 3.97903L3.86549 6.76903L5.93549 5.92403L6.77049 3.84403L3.97549 1.06903C3.85549 0.949035 3.80549 0.774035 3.84549 0.609035C3.88549 0.444035 4.01049 0.309035 4.17549 0.264035C6.26049 -0.375965 8.51549 0.184035 10.0555 1.73403C11.5105 3.18903 12.0955 5.28903 11.6205 7.28403L17.2605 12.924C17.4505 13.114 17.4505 13.419 17.2605 13.609C17.0705 13.799 16.7655 13.799 16.5755 13.609L10.7355 7.76403C10.6105 7.63903 10.5655 7.45403 10.6105 7.28403C11.1155 5.55403 10.6355 3.68403 9.36549 2.40903C8.28049 1.31903 6.77549 0.814035 5.29049 1.00403L7.69049 3.37903C7.83049 3.51403 7.87049 3.72403 7.80049 3.90403L6.77049 6.47403C6.72049 6.59403 6.62549 6.69403 6.50549 6.74403L3.94549 7.78403C3.76549 7.85903 3.56049 7.81403 3.42049 7.67903L1.01049 5.28903C0.825487 6.77403 1.33049 8.27903 2.41549 9.36903C3.69049 10.639 5.55549 11.114 7.28549 10.604C7.45549 10.554 7.64049 10.599 7.76549 10.724L12.1605 15.119C12.3505 15.309 12.3505 15.614 12.1605 15.804C12.0655 15.904 11.9405 15.954 11.8155 15.954Z" fill="#3B3E41"/>
<path d="M26.1004 32.0002C24.5654 32.0002 23.0654 31.3952 21.9504 30.2752C20.4954 28.8252 19.9104 26.7202 20.3904 24.7252L16.1904 20.5252C16.0004 20.3352 16.0004 20.0302 16.1904 19.8402C16.3804 19.6502 16.6854 19.6502 16.8754 19.8402L21.2704 24.2352C21.3954 24.3602 21.4404 24.5452 21.3904 24.7152C20.8804 26.4502 21.3554 28.3152 22.6304 29.5852C23.7104 30.6702 25.2204 31.1752 26.7104 30.9902L24.3204 28.5852C24.1854 28.4452 24.1404 28.2402 24.2154 28.0602L25.2504 25.5002C25.3004 25.3802 25.3954 25.2802 25.5204 25.2302L28.0904 24.2002C28.2704 24.1252 28.4754 24.1702 28.6154 24.3102L30.9954 26.7052C31.1804 25.2202 30.6754 23.7152 29.5904 22.6252C28.3154 21.3502 26.4454 20.8752 24.7154 21.3852C24.5454 21.4352 24.3604 21.3902 24.2354 21.2652L18.3954 15.4252C18.2054 15.2352 18.2054 14.9302 18.3954 14.7402C18.5854 14.5502 18.8904 14.5502 19.0804 14.7402L24.7204 20.3852C26.7104 19.9052 28.8154 20.4902 30.2754 21.9452C31.8154 23.4902 32.3804 25.7452 31.7454 27.8252C31.6954 27.9902 31.5654 28.1152 31.4004 28.1552C31.2354 28.1952 31.0604 28.1452 30.9404 28.0252L28.1554 25.2252L26.0754 26.0602L25.2354 28.1302L28.0254 30.9352C28.1454 31.0552 28.1954 31.2302 28.1504 31.3952C28.1104 31.5602 27.9854 31.6902 27.8204 31.7402C27.2554 31.9152 26.6754 32.0002 26.1004 32.0002Z" fill="#3B3E41"/>
<path d="M26.2204 8.08462C26.0954 8.08462 25.9704 8.03462 25.8754 7.94462L24.0504 6.11962C23.9104 5.97962 23.8704 5.76962 23.9454 5.58962L24.6654 3.88462C24.6954 3.80962 24.7504 3.73962 24.8154 3.68962L28.4004 0.899622C28.5954 0.749622 28.8654 0.764622 29.0404 0.939622L31.0604 2.95962C31.2354 3.13462 31.2504 3.40962 31.1004 3.59962L28.3104 7.18462C28.2604 7.24962 28.1904 7.29962 28.1154 7.33462L26.4054 8.04962C26.3454 8.07462 26.2804 8.08462 26.2204 8.08462ZM24.9704 5.66462L26.3354 7.02962L27.6254 6.48962L30.0754 3.34462L28.6604 1.92962L25.5154 4.37962L24.9704 5.66462Z" fill="#3B3E41"/>
<path d="M15.0461 15.6194C14.9211 15.6194 14.7961 15.5744 14.7011 15.4794C14.5111 15.2894 14.5111 14.9844 14.7011 14.7944L24.0561 5.43937C24.2461 5.24938 24.5511 5.24938 24.7411 5.43937C24.9311 5.62937 24.9311 5.93437 24.7411 6.12437L15.3911 15.4744C15.2961 15.5694 15.1711 15.6194 15.0461 15.6194Z" fill="#3B3E41"/>
<path d="M16.8703 17.4397C16.7453 17.4397 16.6203 17.3947 16.5253 17.2997C16.3353 17.1097 16.3353 16.8047 16.5253 16.6147L25.8803 7.25969C26.0703 7.06969 26.3753 7.06969 26.5653 7.25969C26.7553 7.44969 26.7553 7.75469 26.5653 7.94469L17.2103 17.2997C17.1153 17.3897 16.9953 17.4397 16.8703 17.4397Z" fill="#3B3E41"/>
<path d="M4.36543 26.4684C4.24043 26.4684 4.11543 26.4234 4.02043 26.3284C3.83043 26.1384 3.83043 25.8334 4.02043 25.6434L10.9354 18.7284C11.1254 18.5384 11.4304 18.5384 11.6204 18.7284C11.8104 18.9184 11.8104 19.2234 11.6204 19.4134L4.71043 26.3284C4.61543 26.4234 4.49043 26.4684 4.36543 26.4684Z" fill="#3B3E41"/>
<path d="M6.01582 28.1169C5.89082 28.1169 5.76582 28.0719 5.67082 27.9769C5.48082 27.7869 5.48082 27.4819 5.67082 27.2919L12.5858 20.3769C12.7758 20.1869 13.0808 20.1869 13.2708 20.3769C13.4608 20.5669 13.4608 20.8719 13.2708 21.0619L6.36082 27.9769C6.26582 28.0719 6.14082 28.1169 6.01582 28.1169Z" fill="#3B3E41"/>
<path d="M4.62078 31.2006C3.64078 31.2006 2.66578 30.8306 1.92078 30.0856C1.20078 29.3656 0.800781 28.4056 0.800781 27.3856C0.800781 26.3656 1.19578 25.4056 1.92078 24.6856L13.2608 13.3456C13.4508 13.1556 13.7558 13.1556 13.9458 13.3456L18.6608 18.0606C18.7508 18.1506 18.8008 18.2756 18.8008 18.4056C18.8008 18.5356 18.7508 18.6556 18.6608 18.7506L7.31578 30.0806C6.57578 30.8256 5.59578 31.2006 4.62078 31.2006ZM13.6008 14.3706L2.60078 25.3706C2.06078 25.9106 1.76578 26.6256 1.76578 27.3856C1.76578 28.1456 2.06078 28.8606 2.60078 29.4006C3.71078 30.5106 5.52078 30.5106 6.63078 29.4006L17.6308 18.4006L13.6008 14.3706Z" fill="#3B3E41"/>
</g>
<defs>
<clipPath id="clip0_8_412">
<rect width="32" height="32" fill="white"/>
</clipPath>
</defs>
</svg>
