<svg width="30" height="30" viewBox="0 0 30 30" fill="none" xmlns="http://www.w3.org/2000/svg">
<g clip-path="url(#clip0_33_1729)">
<path d="M23.0341 25.3574H18.2695H16.9865H16.7094V19.0394H18.7996C19.3297 19.0394 19.6429 18.4439 19.3297 18.0152L15.2637 12.4534C15.0047 12.0961 14.4686 12.0961 14.2096 12.4534L10.1437 18.0152C9.83047 18.4439 10.1377 19.0394 10.6738 19.0394H12.764V25.3574H12.4869H11.2038H5.68023C2.51785 25.1847 0 22.2609 0 19.093C0 16.9076 1.19869 15.002 2.97565 13.9718C2.81301 13.5371 2.72868 13.0727 2.72868 12.5844C2.72868 10.3513 4.55382 8.547 6.81266 8.547C7.30057 8.547 7.77041 8.63036 8.21013 8.79114C9.51725 6.05193 12.3363 4.15234 15.6131 4.15234C19.8537 4.1583 23.3474 7.36794 23.7449 11.4589C27.0037 12.0127 29.4794 14.9961 29.4794 18.3724C29.4794 21.9811 26.6362 25.1073 23.0341 25.3574Z" fill="#6D7080"/>
</g>
<defs>
<clipPath id="clip0_33_1729">
<rect width="29.4794" height="29.1429" fill="white" transform="translate(0 0.183594)"/>
</clipPath>
</defs>
</svg>
